<svg width="21" height="21" viewBox="0 0 21 21" fill="none" xmlns="http://www.w3.org/2000/svg">
<path d="M6.75668 19.061C8.31143 20.3187 10.2514 21.0033 12.251 21C13.5704 21 14.8232 20.7077 15.9483 20.1827L19.9536 20.9825C20.0947 21.0106 20.2406 21.0034 20.3783 20.9617C20.516 20.9199 20.6413 20.8448 20.7431 20.743C20.8448 20.6413 20.9199 20.516 20.9617 20.3783C21.0034 20.2405 21.0106 20.0946 20.9825 19.9535L20.1828 15.9495C20.7078 14.8242 21 13.5695 21 12.25C21.0029 10.2507 20.3184 8.31121 19.0612 6.75675C19.3102 8.05234 19.3144 9.38312 19.0735 10.6802C19.4404 12.2838 19.2329 13.9652 18.4873 15.4315C18.3974 15.6073 18.3697 15.8084 18.4085 16.002L19.0105 19.0102L16.0008 18.4082C15.8078 18.3698 15.6075 18.3975 15.4322 18.487C13.9658 19.2338 12.2836 19.4413 10.6797 19.0732C9.38277 19.3144 8.0521 19.3103 6.75668 19.061ZM8.75144 3.52251e-07C7.28017 -0.000417123 5.83254 0.370253 4.54248 1.07772C3.25242 1.78519 2.16158 2.80662 1.37088 4.0475C0.580173 5.28839 0.115136 6.70867 0.0187834 8.17697C-0.0775691 9.64526 0.197875 11.1141 0.819637 12.4477L0.0199819 16.4535C-0.0081141 16.5946 -0.000964485 16.7405 0.0407969 16.8783C0.0825582 17.016 0.157642 17.1413 0.259395 17.243C0.361149 17.3448 0.48643 17.4199 0.624138 17.4617C0.761845 17.5034 0.907728 17.5106 1.04886 17.4825L5.05238 16.6827C6.23931 17.2353 7.53509 17.5144 8.84421 17.4994C10.1533 17.4845 11.4424 17.1759 12.6164 16.5964C13.7904 16.0169 14.8194 15.1813 15.6276 14.1512C16.4357 13.121 17.0024 11.9226 17.2858 10.6443C17.5693 9.36603 17.5622 8.0404 17.2653 6.76517C16.9683 5.48995 16.3889 4.29763 15.5699 3.27613C14.7509 2.25462 13.7131 1.42997 12.533 0.862968C11.3529 0.295963 10.0606 0.00106049 8.75144 3.52251e-07Z" fill="#737272"/>
</svg>
