<svg width="21" height="23" viewBox="0 0 21 23" fill="none" xmlns="http://www.w3.org/2000/svg">
<path d="M5.83333 13.8C5.50278 13.8 5.2255 13.6896 5.0015 13.4688C4.7775 13.248 4.66589 12.9751 4.66667 12.65C4.66667 12.3242 4.77867 12.0508 5.00267 11.83C5.22667 11.6092 5.50356 11.4992 5.83333 11.5C6.16389 11.5 6.44117 11.6104 6.66517 11.8312C6.88917 12.052 7.00078 12.3249 7 12.65C7 12.9758 6.888 13.2491 6.664 13.4699C6.44 13.6907 6.16311 13.8008 5.83333 13.8ZM10.5 13.8C10.1694 13.8 9.89217 13.6896 9.66817 13.4688C9.44417 13.248 9.33256 12.9751 9.33333 12.65C9.33333 12.3242 9.44533 12.0508 9.66933 11.83C9.89333 11.6092 10.1702 11.4992 10.5 11.5C10.8306 11.5 11.1078 11.6104 11.3318 11.8312C11.5558 12.052 11.6674 12.3249 11.6667 12.65C11.6667 12.9758 11.5547 13.2491 11.3307 13.4699C11.1067 13.6907 10.8298 13.8008 10.5 13.8ZM15.1667 13.8C14.8361 13.8 14.5588 13.6896 14.3348 13.4688C14.1108 13.248 13.9992 12.9751 14 12.65C14 12.3242 14.112 12.0508 14.336 11.83C14.56 11.6092 14.8369 11.4992 15.1667 11.5C15.4972 11.5 15.7745 11.6104 15.9985 11.8312C16.2225 12.052 16.3341 12.3249 16.3333 12.65C16.3333 12.9758 16.2213 13.2491 15.9973 13.4699C15.7733 13.6907 15.4964 13.8008 15.1667 13.8ZM2.33333 23C1.69167 23 1.14217 22.7746 0.684835 22.3238C0.227502 21.873 -0.000775797 21.3317 1.98076e-06 20.7V4.6C1.98076e-06 3.9675 0.228669 3.42585 0.686002 2.97505C1.14334 2.52425 1.69245 2.29923 2.33333 2.3H3.5V0H5.83333V2.3H15.1667V0H17.5V2.3H18.6667C19.3083 2.3 19.8578 2.5254 20.3152 2.9762C20.7725 3.427 21.0008 3.96827 21 4.6V20.7C21 21.3325 20.7713 21.8741 20.314 22.3249C19.8567 22.7757 19.3076 23.0008 18.6667 23H2.33333ZM2.33333 20.7H18.6667V9.2H2.33333V20.7Z" fill="#B0ADAD"/>
</svg>
